{"accessors":[{"bufferView":0,"componentType":5125,"count":846294,"max":[846293.0],"min":[0.0],"type":"SCALAR"},{"bufferView":1,"componentType":5126,"count":846294,"max":[0.5692268013954163,0.3516615927219391,0.9905306696891785],"min":[-0.5772693157196045,-0.3607449531555176,-0.9984642267227173],"type":"VEC3"},{"bufferView":2,"componentType":5126,"count":846294,"max":[0.9999998211860657,1.0,0.9999999403953552],"min":[-0.9999988079071045,-1.0,-1.0],"type":"VEC3"},{"bufferView":3,"componentType":5126,"count":846294,"max":[0.9805527925491333,1.0],"min":[0.0,0.11960715055465698],"type":"VEC2"}],"asset":{"generator":"SimLab GLTF","version":"2.0"},"bufferViews":[{"buffer":0,"byteLength":3385176,"target":34963},{"buffer":0,"byteLength":10155528,"byteOffset":3385176,"byteStride":12,"target":34962},{"buffer":0,"byteLength":10155528,"byteOffset":13540704,"byteStride":12,"target":34962},{"buffer":0,"byteLength":6770352,"byteOffset":23696232,"byteStride":8,"target":34962}],"buffers":[{"byteLength":30466584,"uri":"banbida.bin"}],"extensionsUsed":["KHR_materials_pbrSpecularGlossiness"],"images":[{"mimeType":"image/png","uri":"Textures/banbida.png"}],"materials":[{"extensions":{"KHR_materials_pbrSpecularGlossiness":{"diffuseFactor":[0.699999988079071,0.699999988079071,0.699999988079071,1.0],"diffuseTexture":{"index":0},"specularFactor":[1.0,1.0,1.0],"glossinessFactor":0.800000011920929}},"name":"banbida-aiStandardSurface1","alphaMode":"MASK","doubleSided":true,"pbrMetallicRoughness":{"baseColorFactor":[0.699999988079071,0.699999988079071,0.699999988079071,1.0],"baseColorTexture":{"index":0},"metallicFactor":0.0,"roughnessFactor":0.20000000298023225}}],"meshes":[{"primitives":[{"attributes":{"NORMAL":2,"POSITION":1,"TEXCOORD_0":3},"indices":0,"material":0,"mode":4}]}],"nodes":[{"children":[1,2,3,4,5],"matrix":[1.0,0.0,0.0,0.0,0.0,4.4896593387466768e-11,-1.0,0.0,0.0,1.0,4.4896593387466768e-11,0.0,0.0,0.0,0.0,1.0]},{"name":"front","rotation":[-0.7071067690849304,0.0,0.0,-0.7071067690849304],"translation":[0.0,-10.00100040435791,0.0]},{"name":"persp","rotation":[-0.3759382665157318,-0.37202194333076479,-0.5969621539115906,-0.6032464504241943],"translation":[0.8340331315994263,-0.008734293282032013,0.40930354595184328]},{"name":"side","rotation":[-0.5,-0.5,-0.5,-0.5],"translation":[10.00100040435791,0.0,0.0]},{"name":"top","rotation":[0.0,0.0,0.0,-1.0],"translation":[0.0,0.0,10.00100040435791]},{"name":"banbida:white_mesh:Mesh","children":[6],"rotation":[-0.7071067690849304,0.0,0.0,-0.7071067690849304],"scale":[0.22794821858406068,0.22794821858406068,0.22794821858406068]},{"name":"Assembly-2","mesh":0,"rotation":[0.0,0.0,0.0,-1.0]}],"scene":0,"scenes":[{"nodes":[0]}],"textures":[{"source":0}]}